<?xml version="1.0" standalone="no"?>
<!DOCTYPE svg PUBLIC "-//W3C//DTD SVG 20010904//EN"
 "http://www.w3.org/TR/2001/REC-SVG-20010904/DTD/svg10.dtd">
<svg version="1.0" xmlns="http://www.w3.org/2000/svg"
 width="300.000000pt" height="300.000000pt" viewBox="0 0 300.000000 300.000000"
 preserveAspectRatio="xMidYMid meet">
<metadata>
Created by potrace 1.10, written by Peter Selinger 2001-2011
</metadata>
<g transform="translate(0.000000,300.000000) scale(0.050000,-0.050000)"
fill="#000000" stroke="none">
<path d="M80 3010 l0 -2930 2925 0 2925 0 0 2930 0 2930 -2925 0 -2925 0 0
-2930z m5328 2854 l-1 -45 52 50 c126 121 132 108 171 -429 73 -1004 90 -1234
100 -1306 l11 -76 -172 6 -171 6 -57 135 c-426 1011 -1609 1526 -2611 1138
-1523 -590 -1805 -3247 -452 -4264 812 -610 2087 -543 2797 147 57 56 109 96
116 90 6 -6 -23 -45 -65 -87 l-76 -75 86 66 c50 38 82 76 76 92 -6 15 1 38 15
52 77 79 252 300 310 391 81 126 91 127 222 24 100 -79 114 -119 42 -119 -19
0 -77 -47 -127 -105 -50 -58 -150 -172 -221 -255 -194 -224 -559 -522 -766
-626 -266 -134 -627 -234 -841 -234 -121 0 -266 -23 -266 -43 0 -62 575 24
890 133 32 11 34 10 10 -8 -33 -24 -20 -28 28 -10 18 7 27 20 21 30 -6 10 3
12 20 6 17 -7 31 -2 31 11 0 29 177 105 205 88 12 -7 15 -4 8 8 -15 25 38 52
102 51 25 0 45 7 45 16 0 9 43 49 95 88 264 201 589 538 595 617 3 42 218 192
242 168 15 -15 -117 -231 -249 -408 -403 -538 -1033 -932 -1648 -1028 -178
-28 -266 0 -171 55 42 24 42 27 6 24 -22 -1 -62 -1 -90 2 -81 8 46 35 176 38
65 1 102 10 94 22 -7 11 4 21 24 22 34 2 34 3 1 12 -20 5 -30 20 -24 33 7 12
0 8 -15 -10 -21 -25 -36 -28 -65 -13 -26 15 -33 15 -23 -1 9 -14 1 -23 -18
-23 -18 0 -28 8 -22 17 6 10 -27 15 -74 13 -46 -2 -129 -6 -184 -7 -64 -2 -90
-10 -73 -21 19 -12 11 -17 -27 -17 -40 0 -47 5 -27 19 19 14 12 15 -23 6 -102
-27 -155 -33 -110 -12 32 15 22 19 -50 20 -65 1 -82 -4 -60 -18 21 -14 22 -19
4 -20 -14 0 -30 14 -37 30 -8 20 -38 29 -94 28 -71 -2 -76 -4 -33 -18 55 -17
53 -21 -16 -28 -25 -3 -49 1 -54 8 -5 7 -51 15 -104 17 -143 5 -253 24 -282
48 -15 12 -59 25 -99 29 -40 5 -84 17 -98 28 -13 11 -36 18 -51 15 -14 -3 -60
7 -102 21 -42 14 -80 22 -85 18 -5 -5 52 -30 126 -56 74 -26 156 -63 183 -83
26 -21 62 -36 80 -36 21 1 17 8 -13 20 -63 25 -56 39 10 20 30 -9 53 -25 51
-36 -3 -12 8 -26 25 -32 16 -7 29 -3 29 8 0 10 10 19 21 19 12 0 17 -7 11 -16
-5 -9 34 -33 88 -54 54 -21 93 -45 88 -54 -6 -9 60 -17 146 -17 86 -1 174 -10
196 -20 27 -12 -10 -16 -114 -11 -95 4 -162 -2 -175 -15 -17 -17 -27 -15 -39
4 -14 23 -19 23 -30 0 -8 -19 -15 -20 -23 -4 -6 12 -28 18 -49 13 -50 -13
-287 26 -515 85 -972 252 -1794 1040 -2056 1969 -54 189 -91 404 -68 389 8 -5
26 20 39 56 13 36 28 54 34 40 17 -45 126 -31 126 16 0 31 -12 41 -45 38 -83
-7 -95 1 -95 60 0 69 30 94 71 60 23 -19 29 -18 29 4 1 22 4 22 19 -2 15 -23
28 -24 71 -5 59 27 47 73 -15 57 -72 -19 -100 35 -91 178 8 125 6 129 -39 129
-27 0 -42 9 -35 20 7 11 29 20 49 20 38 0 65 61 43 97 -30 49 -129 67 -158 29
-50 -67 30 321 114 548 377 1023 1631 1957 2614 1946 200 -2 586 0 848 5 250
4 251 4 775 -130 699 -179 784 -168 785 102 0 18 14 24 40 17 44 -11 56 16 15
34 -14 6 -2 9 25 6 38 -3 50 -15 48 -50z m-3944 -194 c2 -11 -58 -63 -134
-115 -382 -264 -969 -871 -970 -1002 0 -31 -5 -34 -30 -13 -25 21 -30 112 -30
593 l0 568 580 -6 c367 -3 581 -12 584 -25z m2476 -480 c94 -29 190 -54 215
-54 25 0 40 -8 34 -18 -6 -10 0 -19 15 -21 14 -2 35 -4 47 -5 11 -2 34 -14 50
-28 16 -14 98 -72 183 -130 154 -105 376 -303 441 -395 97 -136 180 -270 236
-380 34 -67 98 -162 143 -211 l81 -88 153 0 153 0 -4 -55 c-2 -30 -4 -440 -5
-910 l-2 -855 -49 0 c-27 0 -79 -29 -119 -67 -39 -37 -75 -64 -79 -59 -4 4
-67 -72 -139 -168 -139 -187 -253 -304 -438 -452 -62 -49 -107 -96 -100 -104
8 -7 5 -12 -6 -9 -38 7 -63 -1 -101 -36 -22 -19 -84 -51 -139 -71 -322 -118
-440 -154 -534 -166 -58 -7 -116 -22 -129 -32 -29 -22 -504 -16 -519 7 -6 9
-35 17 -64 17 -92 0 -417 96 -544 160 -67 34 -130 56 -139 50 -10 -6 -25 0
-33 13 -9 14 -6 18 9 9 13 -8 23 -10 23 -4 0 6 -19 21 -42 33 -30 16 -39 16
-29 1 8 -13 1 -17 -18 -10 -17 7 -27 19 -21 27 5 9 -42 52 -105 96 -293 206
-535 547 -653 922 -167 529 -147 1353 45 1836 22 56 35 108 29 115 -7 7 -3 12
8 12 12 0 27 20 33 45 47 183 357 564 594 732 76 53 132 104 124 113 -8 9 -5
10 8 3 32 -18 90 7 74 32 -7 12 -4 15 8 8 27 -17 88 6 74 28 -5 9 6 16 26 14
19 -1 83 14 142 34 320 107 765 116 1063 21z m-3592 -3762 c18 -7 32 -25 32
-41 0 -16 9 -24 20 -17 11 7 20 -3 20 -23 0 -125 530 -669 875 -897 80 -53
145 -104 145 -113 0 -21 85 -16 -575 -31 l-565 -12 0 573 c0 315 4 573 8 573
5 0 23 -5 40 -12z m5324 -1123 c-17 -17 -632 19 -632 37 0 9 52 55 115 101 63
46 205 175 315 286 l200 201 6 -308 c3 -169 1 -312 -4 -317z"/>
<path d="M3247 5826 c8 -8 96 -15 195 -17 105 -2 170 4 155 14 -32 20 -370 23
-350 3z"/>
<path d="M2805 5649 c-58 -14 -118 -30 -135 -36 -17 -7 -37 -13 -45 -15 -92
-17 -536 -231 -655 -315 -44 -31 -119 -81 -166 -111 -50 -31 -80 -63 -72 -76
9 -14 5 -17 -10 -8 -31 20 -307 -247 -293 -283 6 -15 2 -22 -9 -15 -52 32
-337 -392 -424 -630 -23 -60 -54 -123 -71 -140 -27 -27 -29 -26 -19 4 42 120
-74 43 -135 -90 l-45 -97 -25 60 c-14 33 -18 72 -9 87 13 21 10 21 -17 0 -28
-23 -30 -21 -21 17 7 25 1 50 -14 59 -14 8 -18 26 -10 40 12 19 18 19 30 -1
10 -15 21 0 30 43 8 38 54 147 103 243 109 218 95 217 -93 -5 -82 -97 -160
-178 -173 -179 -57 -3 -78 -66 -32 -96 52 -34 59 -65 15 -65 -16 0 -30 11 -30
24 0 40 -34 -9 -48 -69 -13 -57 -1 -67 46 -37 15 10 21 28 13 40 -8 13 3 22
28 22 22 0 41 -10 41 -22 0 -16 9 -15 30 2 30 25 28 -102 -2 -205 -13 -42 -48
-47 -48 -6 0 18 -12 25 -30 18 -17 -6 -30 -3 -30 8 0 16 -84 65 -111 65 -47 0
50 -118 143 -173 32 -19 34 -29 13 -65 -23 -37 -21 -41 20 -37 39 4 44 -3 38
-52 -4 -35 1 -53 14 -45 11 7 26 -6 33 -28 7 -22 21 -35 31 -29 11 6 19 -5 19
-25 1 -30 4 -31 20 -6 16 24 19 21 20 -16 0 -25 -14 -50 -30 -57 -38 -14 -39
-47 -1 -47 17 0 32 -26 37 -65 l8 -65 3 68 c2 37 19 80 38 96 26 21 28 31 10
39 -14 6 -20 19 -13 30 6 10 -2 39 -17 63 -35 53 -26 189 16 235 16 18 29 43
29 56 0 12 7 23 16 23 9 0 28 33 42 72 14 40 55 105 91 145 35 40 76 105 91
143 41 107 153 325 189 370 18 22 -7 -36 -56 -130 -49 -93 -94 -197 -100 -230
-7 -33 22 12 64 100 42 88 100 198 129 245 62 97 68 122 21 82 -31 -25 -31
-23 -6 17 17 27 33 36 41 23 9 -15 17 -15 27 1 8 13 23 17 34 10 11 -6 17 4
13 23 -4 21 8 37 30 40 34 6 35 3 4 -44 -45 -69 -25 -80 36 -19 49 49 15 143
-36 97 -9 -8 -10 -3 -1 11 8 15 20 21 27 15 6 -6 32 8 58 32 53 50 63 29 13
-27 -18 -20 -27 -42 -20 -50 13 -13 130 109 132 137 7 102 691 597 964 697 70
26 150 56 177 66 28 11 67 23 89 28 21 4 43 11 48 16 22 22 -13 22 -112 -1z
m-887 -499 c-16 -17 -60 -39 -98 -50 -47 -13 -61 -13 -46 2 11 11 33 23 48 25
16 3 46 15 68 28 55 33 64 31 28 -5z m-1253 -933 c-6 -23 -28 -47 -50 -52 -30
-8 -32 -14 -12 -27 21 -13 19 -17 -8 -18 -19 0 -35 14 -35 31 0 16 16 36 35
43 19 7 42 25 51 39 24 40 32 33 19 -16z m15 -409 c0 -28 8 -45 19 -39 20 13
1 -64 -37 -149 l-23 -50 10 50 c6 28 17 72 24 98 9 32 6 44 -8 35 -27 -17 -49
42 -34 90 16 51 49 27 49 -35z"/>
<path d="M5383 5622 c-49 -30 -26 -202 27 -202 23 0 30 25 30 99 0 103 -15
129 -57 103z"/>
<path d="M4557 5454 c15 -18 130 -84 255 -146 126 -62 228 -121 228 -131 0
-29 -32 -19 -70 23 -20 22 -42 40 -50 40 -24 0 -8 -80 20 -105 24 -21 24 -20
2 10 -33 43 3 47 38 5 35 -43 54 -38 84 23 27 54 66 67 66 22 0 -14 9 -26 20
-26 11 -1 60 -13 108 -27 52 -15 93 -18 100 -7 7 11 25 23 41 28 21 7 17 13
-15 22 -24 6 -44 2 -44 -9 0 -13 -12 -11 -30 4 -16 14 -30 49 -30 77 -1 77
-31 120 -63 88 -14 -14 -50 -25 -81 -25 -42 0 -56 -10 -56 -39 0 -66 -37 -67
-136 -4 -52 33 -157 89 -234 124 -77 36 -149 70 -160 76 -11 6 -8 -4 7 -23z"/>
<path d="M5538 5276 c-32 -59 -75 -252 -60 -267 6 -6 12 -26 12 -44 0 -17 11
-35 25 -40 31 -10 33 59 4 88 -15 15 -13 30 7 50 23 23 61 257 41 257 -3 0
-16 -20 -29 -44z"/>
<path d="M2040 5166 c-204 -174 -300 -269 -300 -298 0 -14 -16 -35 -35 -46
-19 -12 -27 -21 -18 -21 10 -1 7 -15 -7 -31 -14 -17 -20 -37 -13 -44 16 -16
71 53 72 90 1 15 11 20 24 12 16 -10 20 -4 11 20 -8 19 -5 29 5 23 10 -7 24
-2 31 9 7 11 21 15 31 9 11 -6 19 5 19 24 0 20 79 110 175 201 198 187 201
220 5 52z"/>
<path d="M5067 5123 c-33 -53 99 -172 156 -141 20 11 37 13 37 6 0 -7 14 -2
30 12 44 36 37 65 -12 49 -48 -15 -173 44 -182 86 -4 18 -13 14 -29 -12z"/>
<path d="M1334 4561 c-19 -32 -29 -72 -22 -89 7 -18 -3 -55 -21 -84 -19 -28
-38 -68 -42 -89 -5 -22 -13 -56 -17 -77 -5 -20 -18 -69 -28 -108 -11 -39 -14
-78 -7 -86 7 -8 3 -9 -10 -1 -13 7 -28 -1 -34 -17 -7 -17 -3 -30 8 -30 11 0 9
-17 -5 -39 -33 -53 -13 -68 51 -39 43 20 53 38 53 97 0 40 14 124 30 188 36
136 36 139 10 123 -11 -7 -15 1 -8 18 7 17 22 29 35 26 13 -2 20 8 17 23 -3
15 9 49 26 75 17 27 25 48 18 48 -7 0 -4 11 8 25 14 18 13 35 -4 59 -22 31
-28 28 -58 -23z"/>
<path d="M1513 4545 c-24 -39 -36 -205 -15 -205 12 0 23 11 24 25 1 14 4 63 8
110 6 83 2 101 -17 70z"/>
<path d="M1102 3740 c-14 -49 -33 -105 -43 -123 -27 -53 -30 -354 -3 -381 17
-17 26 -14 37 14 8 22 5 41 -8 45 -13 4 -17 39 -11 91 6 46 11 96 12 110 2 61
44 3 44 -61 0 -53 6 -66 23 -52 24 20 23 72 -8 317 l-17 130 -26 -90z"/>
<path d="M260 3509 c0 -7 14 -25 30 -42 17 -17 24 -41 17 -54 -9 -16 -6 -16
13 1 27 25 134 -15 164 -62 11 -16 25 -16 52 1 24 15 49 16 75 4 33 -17 35
-16 9 7 -16 14 -33 40 -36 56 -9 43 -88 119 -83 80 12 -95 -21 -103 -129 -30
-71 48 -112 62 -112 39z"/>
<path d="M320 3179 c0 -97 32 -89 44 11 5 48 0 70 -18 70 -17 0 -26 -28 -26
-81z"/>
<path d="M391 3235 c-26 -83 -30 -258 -6 -250 14 5 26 43 27 88 1 43 8 103 15
133 14 53 -20 81 -36 29z"/>
<path d="M506 3243 c-11 -7 -25 -86 -32 -176 l-12 -162 49 22 c27 13 49 29 49
37 0 8 14 9 30 3 25 -9 30 2 26 54 -3 38 5 69 19 74 20 7 39 125 20 125 -3 0
-33 8 -67 18 -35 10 -71 12 -82 5z"/>
<path d="M1023 3139 c-1 -50 -14 -102 -27 -115 -19 -19 -19 -24 1 -24 35 0 47
43 38 143 l-8 87 -4 -91z"/>
<path d="M1200 3119 c0 -11 -12 -19 -27 -19 -27 0 -93 -61 -93 -87 0 -7 13
-13 29 -13 48 0 51 -30 10 -107 -44 -83 -47 -93 -20 -93 10 0 22 20 27 45 10
51 19 -73 25 -325 6 -253 25 -383 62 -409 23 -18 30 -48 24 -117 -4 -52 -1
-94 7 -94 8 0 10 -13 3 -30 -6 -16 -1 -30 12 -30 13 0 18 -9 11 -20 -7 -11 2
-40 19 -64 25 -37 31 -39 31 -10 0 18 -10 34 -22 34 -12 0 -18 12 -12 28 6 15
4 59 -5 97 -9 41 -7 84 4 105 15 27 14 32 -5 20 -20 -12 -23 -3 -13 35 8 33 4
55 -12 60 -16 6 -25 53 -26 137 -1 70 -12 214 -25 318 -36 285 -45 480 -25
480 11 0 22 -43 26 -95 8 -94 8 -94 11 20 3 87 11 115 34 115 45 0 36 31 -10
35 -22 1 -40 -6 -40 -16z"/>
<path d="M1261 2956 c3 -161 31 -204 33 -48 0 73 -7 138 -17 144 -9 5 -16 -37
-16 -96z"/>
<path d="M712 2989 c-20 -54 -14 -66 29 -55 23 6 38 25 35 42 -8 43 -49 52
-64 13z"/>
<path d="M513 2832 c-13 -36 3 -92 27 -92 31 0 41 68 13 95 -24 24 -29 24 -40
-3z"/>
<path d="M1232 2680 c6 -104 18 -221 28 -260 21 -80 7 125 -21 330 -14 97 -15
84 -7 -70z"/>
<path d="M425 2765 c-42 -14 -30 -85 15 -85 41 0 51 32 25 72 -8 12 -26 18
-40 13z"/>
<path d="M1313 2627 c-21 -21 -15 -183 7 -197 12 -8 20 30 20 99 0 112 -3 122
-27 98z"/>
<path d="M467 2607 c-16 -6 -14 -26 7 -69 l30 -61 47 44 c66 62 6 123 -84 86z"/>
<path d="M277 2546 c-18 -23 -19 -29 -2 -19 16 10 25 4 25 -16 0 -17 7 -31 17
-31 9 0 12 -27 7 -60 -9 -62 16 -79 52 -34 16 18 16 50 1 110 -23 89 -55 105
-100 50z"/>
<path d="M1062 2405 c-1 -58 5 -105 14 -105 9 0 13 34 9 75 -12 129 -20 139
-23 30z"/>
<path d="M752 2156 c3 -46 -2 -98 -12 -116 -13 -24 1 -60 51 -130 38 -53 69
-109 69 -124 0 -14 7 -26 16 -26 9 0 36 -35 60 -77 24 -43 57 -89 74 -103 16
-14 30 -49 30 -77 1 -35 6 -44 17 -27 12 18 60 -26 167 -151 138 -163 316
-328 316 -294 0 28 -170 227 -205 239 -19 7 -32 19 -30 26 6 20 -71 144 -89
144 -9 0 -16 8 -16 17 0 9 -41 79 -92 155 -50 76 -113 186 -139 245 -27 58
-71 133 -98 166 -28 32 -61 94 -74 138 -31 103 -53 101 -45 -5z m219 -412
c-10 -10 -62 92 -79 156 -8 28 9 5 36 -49 28 -55 47 -103 43 -107z"/>
<path d="M1437 1994 c12 -15 18 -33 11 -39 -6 -6 7 -46 30 -88 l40 -77 1 65
c1 36 -8 65 -19 65 -11 0 -20 17 -20 38 0 21 -15 43 -33 50 -26 10 -28 7 -10
-14z"/>
<path d="M1349 1901 c12 -127 100 -321 146 -321 32 0 32 9 -6 82 -18 34 -40
54 -53 46 -13 -9 -17 -5 -8 9 8 13 5 23 -7 23 -28 0 -27 75 2 84 21 7 -50 176
-74 176 -6 0 -6 -44 0 -99z"/>
<path d="M540 1880 c-22 -14 -23 -19 -4 -20 15 0 21 -9 14 -20 -7 -11 7 -20
31 -20 31 0 40 -9 31 -31 -6 -18 -3 -26 8 -19 11 7 21 3 23 -9 1 -11 4 -30 7
-41 3 -11 6 -30 8 -41 1 -12 13 -15 25 -7 16 10 20 4 12 -16 -15 -39 40 -121
69 -103 15 9 17 -5 8 -43 -12 -45 -8 -53 18 -43 18 7 27 4 21 -6 -7 -10 11
-42 38 -72 28 -30 45 -62 40 -71 -6 -10 1 -13 16 -7 18 7 42 -18 66 -68 32
-66 42 -74 61 -47 18 25 6 51 -64 138 -182 223 -315 452 -298 513 10 34 8 37
-9 13 -19 -26 -25 -26 -49 5 -31 40 -32 41 -72 15z"/>
<path d="M1080 1886 c0 -29 82 -171 93 -160 4 5 -15 48 -42 96 -28 48 -51 77
-51 64z"/>
<path d="M5519 1678 c-12 -22 -71 -101 -132 -175 l-109 -133 107 116 c101 109
190 234 167 234 -6 0 -21 -19 -33 -42z"/>
<path d="M1600 1516 c0 -15 13 -46 30 -70 23 -33 24 -45 5 -53 -15 -6 -11 -10
10 -11 19 -1 35 -15 35 -32 0 -16 10 -30 22 -30 12 0 17 -12 12 -28 -6 -15 3
-49 21 -75 31 -46 31 -46 -7 -13 -75 65 -101 10 -36 -75 63 -82 16 -75 -60 9
-21 23 -46 42 -54 42 -27 0 216 -234 328 -317 290 -214 642 -367 1017 -440
220 -44 268 -48 486 -45 186 3 149 40 -51 51 -140 7 -368 47 -516 90 -37 11
-75 15 -85 9 -9 -6 -17 -3 -17 7 0 22 -179 88 -202 74 -10 -6 -18 -2 -18 9 0
28 -179 105 -207 89 -13 -8 -16 -6 -8 3 8 9 -55 64 -140 121 -218 147 -483
431 -357 383 30 -12 0 103 -34 128 -8 6 -7 35 4 64 13 33 13 57 1 64 -10 7
-19 1 -19 -13 0 -19 -5 -20 -24 -1 -35 35 -66 30 -36 -6 18 -21 18 -30 2 -30
-13 0 -31 22 -41 48 -21 56 -61 87 -61 48z"/>
<path d="M1073 1230 c-13 -46 -8 -66 20 -90 21 -16 60 -57 87 -91 28 -33 59
-63 70 -67 48 -16 85 -56 105 -112 14 -37 22 -46 23 -24 2 34 7 33 67 -8 36
-25 -27 42 -139 149 -145 138 -205 210 -210 249 l-6 54 -17 -60z"/>
<path d="M1750 759 c-12 -18 2 -27 35 -21 8 1 15 -5 15 -14 0 -9 38 -38 85
-63 100 -56 96 -49 -29 46 -52 39 -100 63 -106 52z"/>
<path d="M4348 463 c15 -24 -58 -51 -88 -33 -11 7 -20 2 -20 -10 0 -12 -8 -17
-18 -11 -10 6 -23 -3 -29 -19 -7 -17 -37 -31 -67 -32 -37 -2 -44 -6 -19 -12
20 -5 60 -1 90 10 29 11 91 31 139 45 85 26 102 63 35 76 -21 4 -30 -2 -23
-14z"/>
<path d="M2520 4685 c-207 -61 -459 -374 -460 -571 0 -92 51 -201 86 -181 13
7 17 6 9 -3 -25 -28 68 -110 123 -110 29 0 88 22 132 49 87 54 192 64 315 30
86 -24 86 -18 37 -232 -43 -193 -46 -198 -128 -239 -268 -135 -333 -328 -170
-500 89 -94 101 -116 80 -144 -96 -134 -57 -250 129 -382 140 -101 101 -248
-138 -529 -168 -196 -193 -256 -146 -339 119 -208 161 -216 513 -103 497 161
801 147 1169 -52 269 -145 321 -130 630 193 271 283 301 392 149 543 -87 87
-93 90 -185 79 -82 -9 -117 1 -255 68 -88 42 -227 91 -309 108 -183 38 -173
20 -102 172 119 256 128 317 135 938 8 680 1 640 127 720 142 92 233 227 197
293 -48 90 -173 187 -243 189 -143 4 -230 -7 -343 -45 -110 -37 -122 -37 -197
-7 -69 27 -100 28 -224 8 -135 -23 -160 -21 -364 29 -248 60 -406 65 -567 18z
m533 -247 c261 -68 335 -68 496 2 132 56 135 39 16 -86 -212 -224 -283 -466
-247 -831 74 -741 12 -1104 -258 -1520 -99 -153 -91 -176 24 -72 417 374 531
673 494 1289 -59 987 63 1224 650 1264 102 7 120 -37 24 -55 -291 -54 -335
-168 -319 -810 20 -837 -99 -1170 -533 -1489 -138 -101 -126 -112 64 -57 442
129 669 110 968 -77 145 -90 147 -91 228 -23 58 49 65 51 96 20 31 -31 17 -50
-204 -271 l-237 -238 -93 71 c-399 307 -998 319 -1567 32 -157 -79 -139 -16
51 175 282 283 365 534 236 715 -51 72 -176 143 -251 143 -74 0 -62 37 24 73
53 22 105 28 182 19 l108 -13 -11 84 c-23 173 -155 277 -349 277 l-130 0 30
45 c65 99 155 139 296 131 l132 -7 -9 158 c-16 271 55 485 241 727 55 72 92
127 82 122 -259 -126 -335 -136 -583 -78 -216 51 -281 36 -374 -86 -107 -140
-125 -49 -28 145 136 273 331 331 751 221z"/>
</g>
</svg>
